<?xml version="1.0" standalone="no"?>
<!DOCTYPE svg PUBLIC "-//W3C//DTD SVG 20010904//EN"
 "http://www.w3.org/TR/2001/REC-SVG-20010904/DTD/svg10.dtd">
<svg version="1.0" xmlns="http://www.w3.org/2000/svg"
 width="1192.000000pt" height="1067.000000pt" viewBox="0 0 1192.000000 1067.000000"
 preserveAspectRatio="xMidYMid meet">

<g transform="translate(0.000000,1067.000000) scale(0.100000,-0.100000)"
fill="#000000" stroke="none">
<path d="M5125 10642 c-27 -10 -1164 -620 -2525 -1355 -2710 -1465 -2542
-1368 -2575 -1480 -27 -91 -17 -158 35 -240 56 -89 178 -140 280 -118 28 6
132 56 242 115 106 58 201 108 210 111 17 7 18 -139 20 -2851 l3 -2859 27 -51
c55 -104 157 -161 272 -152 99 8 176 60 224 152 l27 51 3 2413 2 2412 3840 0
3840 0 0 -504 0 -504 33 -63 c53 -102 152 -157 268 -146 67 6 122 33 170 84
80 84 73 -7 79 1069 l5 962 210 -114 c118 -64 230 -118 258 -124 88 -18 171 6
242 71 62 57 88 124 83 213 -4 82 -25 131 -77 182 -24 24 -837 469 -2506 1371
-1358 734 -2484 1341 -2502 1349 -55 24 -132 26 -188 6z m3923 -3099 l-3 -198
-3837 -3 -3838 -2 0 200 0 200 3840 0 3840 0 -2 -197z"/>
<path d="M2067 5326 c-56 -20 -103 -60 -126 -109 -21 -43 -21 -53 -21 -695 0
-713 -2 -693 58 -755 15 -16 45 -39 67 -50 40 -22 43 -22 695 -22 l655 0 42
22 c51 27 96 82 112 132 8 27 11 227 11 677 0 597 -2 642 -19 679 -23 51 -89
111 -138 124 -61 17 -1287 14 -1336 -3z"/>
<path d="M4699 4995 c-15 -8 -34 -30 -43 -49 -15 -31 -16 -197 -16 -1918 0
-1871 0 -1883 20 -1916 33 -54 68 -62 255 -62 222 0 227 2 304 140 109 193
307 346 536 416 81 25 105 27 240 27 134 0 159 -2 238 -26 248 -76 424 -216
552 -440 71 -125 -61 -112 1128 -115 967 -2 1034 -1 1067 15 20 10 43 33 53
53 16 33 17 126 15 1680 l-3 1645 -22 80 c-70 249 -205 394 -428 461 -57 18
-161 19 -1965 21 -1638 2 -1909 0 -1931 -12z"/>
<path d="M9452 3904 c-55 -38 -52 39 -52 -1416 0 -1046 3 -1348 13 -1367 31
-61 113 -84 169 -47 14 9 38 40 53 69 175 324 493 511 840 494 312 -16 582
-181 746 -458 78 -132 68 -129 359 -129 265 0 290 5 322 70 17 32 18 83 18
625 0 570 -1 591 -20 622 -55 90 -1056 1493 -1086 1521 l-34 32 -653 0 c-575
0 -655 -2 -675 -16z"/>
<path d="M2359 3406 c-59 -21 -96 -53 -123 -108 l-26 -52 0 -648 c0 -703 -2
-679 56 -747 61 -73 32 -71 764 -71 616 0 657 2 695 19 22 10 52 31 67 47 60
64 58 44 58 753 l0 649 -28 53 c-20 39 -41 62 -77 84 l-48 30 -651 2 c-515 2
-659 0 -687 -11z"/>
<path d="M5855 1324 c-140 -30 -277 -114 -374 -230 -99 -118 -142 -233 -148
-394 -6 -136 10 -217 61 -320 69 -141 178 -249 321 -316 377 -178 825 37 930
445 21 82 21 227 0 316 -80 348 -437 573 -790 499z"/>
<path d="M10304 1325 c-144 -31 -256 -96 -360 -208 -186 -201 -227 -494 -103
-747 34 -69 58 -101 128 -170 144 -142 274 -195 476 -195 108 1 129 4 206 31
174 62 307 179 384 339 56 117 70 177 68 305 -1 182 -66 333 -200 467 -155
154 -390 224 -599 178z"/>
</g>
</svg>
