<?xml version="1.0" standalone="no"?>
<!DOCTYPE svg PUBLIC "-//W3C//DTD SVG 20010904//EN"
 "http://www.w3.org/TR/2001/REC-SVG-20010904/DTD/svg10.dtd">
<svg version="1.0" xmlns="http://www.w3.org/2000/svg"
 width="702.000000pt" height="352.000000pt" viewBox="0 0 702.000000 352.000000"
 preserveAspectRatio="xMidYMid meet">

<g transform="translate(0.000000,352.000000) scale(0.100000,-0.100000)"
fill="#000000" stroke="none">
<path d="M1386 3495 c-72 -25 -136 -108 -136 -174 l0 -30 -264 -3 -265 -3 -30
-29 c-36 -35 -48 -84 -31 -127 26 -62 -25 -59 882 -59 620 0 834 -3 853 -12
29 -13 55 -55 55 -88 0 -34 -29 -79 -63 -100 -31 -19 -58 -20 -1065 -20
l-1032 0 -38 -34 c-32 -30 -37 -40 -37 -80 0 -36 6 -51 28 -73 l27 -28 903 -5
c680 -4 907 -8 923 -17 57 -33 52 -131 -9 -175 l-32 -23 -775 -5 c-604 -4
-780 -8 -797 -18 -57 -32 -69 -117 -24 -163 l29 -29 969 0 c614 0 981 -4 1004
-10 52 -14 74 -43 74 -96 0 -36 -6 -49 -33 -76 l-32 -33 -1189 -5 -1190 -5
-28 -21 c-34 -26 -58 -84 -49 -119 4 -15 18 -38 31 -51 l24 -24 846 0 c908 0
888 1 915 -49 24 -46 2 -128 -43 -153 -16 -10 -111 -14 -357 -18 l-335 -5 -32
-360 c-38 -416 -39 -505 -6 -551 46 -64 70 -69 347 -69 l249 0 18 85 c74 344
388 602 734 603 183 1 329 -57 451 -178 118 -117 172 -238 183 -410 l6 -100
1104 0 1104 0 23 95 c13 52 42 133 66 180 58 116 205 265 323 327 114 60 217
86 340 86 122 1 185 -13 294 -65 66 -32 101 -57 161 -117 118 -118 177 -255
184 -427 l3 -79 71 1 c114 2 188 56 212 155 6 24 29 258 51 519 44 521 44 531
-8 651 -22 50 -81 120 -357 422 -354 386 -379 408 -505 447 -58 18 -93 20
-452 20 l-389 0 0 25 c0 13 9 132 21 262 11 131 19 263 17 294 -5 63 -32 110
-81 137 -30 16 -149 17 -1917 19 -1586 2 -1891 0 -1924 -12z m4707 -943 c50
-24 89 -62 322 -317 l265 -290 -647 -3 c-355 -1 -648 -1 -650 1 -2 2 9 146 24
320 l27 317 301 0 300 0 58 -28z"/>
<path d="M2270 1094 c-166 -35 -337 -170 -412 -324 -92 -189 -84 -389 24 -550
70 -105 179 -179 305 -205 87 -19 136 -19 228 0 217 45 390 198 459 407 34
103 41 187 22 278 -61 293 -325 459 -626 394z m179 -280 c151 -44 216 -212
140 -362 -84 -169 -300 -222 -429 -106 -55 50 -80 107 -80 181 0 135 75 240
203 284 65 23 99 23 166 3z"/>
<path d="M5875 1095 c-217 -48 -397 -220 -460 -439 -25 -84 -22 -222 4 -307
118 -375 602 -466 902 -169 115 114 171 230 184 380 31 347 -282 612 -630 535z
m213 -294 c224 -116 153 -456 -105 -511 -159 -34 -303 83 -303 244 1 169 151
307 318 291 30 -3 70 -14 90 -24z"/>
</g>
</svg>
